<svg width="24" height="25" viewBox="0 0 24 25" fill="none" xmlns="http://www.w3.org/2000/svg">
<g id="vuesax/linear/apple">
<g id="apple">
<path id="Vector" fill-rule="evenodd" clip-rule="evenodd" d="M15.4 2.5C15.6 3.6 15.1 4.7 14.5 5.5C13.9 6.3 12.8 7 11.7 6.9C11.5 5.8 12 4.8 12.6 4C13.3 3.2 14.4 2.6 15.4 2.5ZM18.6 19.9C19.1 19.1 19.4 18.6 19.8 17.7C16.7 16.5 16.2 12.1 19.3 10.5C18.4 9.3 17.1 8.7 15.8 8.7C14.9 8.7 14.3 8.9 13.7 9.1C13.2 9.3 12.8 9.4 12.3 9.4C11.7 9.4 11.3 9.2 10.7 9C10.1 8.8 9.49998 8.6 8.79998 8.6C7.39998 8.6 5.89998 9.4 4.99998 10.9C3.69998 12.9 3.89998 16.8 5.99998 20C6.89998 21.2 7.89998 22.5 9.19998 22.5C9.79998 22.5 10.1 22.3 10.5 22.2C11 22 11.5 21.8 12.3 21.8C13.2 21.8 13.6 22 14.1 22.2C14.5 22.4 14.8 22.5 15.4 22.5C16.8 22.5 17.8 21 18.6 19.9Z" stroke="#FAFDFC" stroke-width="1.5" stroke-miterlimit="10" stroke-linecap="round" stroke-linejoin="round"/>
</g>
</g>
</svg>
