<svg width="24" height="24" viewBox="0 0 24 24" fill="none" xmlns="http://www.w3.org/2000/svg">
<g id="vuesax/linear/bubble">
<g id="bubble">
<path id="Vector" d="M15.59 12.26C18.4232 12.26 20.72 9.96323 20.72 7.13C20.72 4.29678 18.4232 2 15.59 2C12.7568 2 10.46 4.29678 10.46 7.13C10.46 9.96323 12.7568 12.26 15.59 12.26Z" stroke="#292D32" stroke-width="1.5" stroke-miterlimit="10"/>
<path id="Vector_2" d="M6.35999 19.44C8.06102 19.44 9.44 18.0611 9.44 16.36C9.44 14.659 8.06102 13.28 6.35999 13.28C4.65895 13.28 3.28 14.659 3.28 16.36C3.28 18.0611 4.65895 19.44 6.35999 19.44Z" stroke="#292D32" stroke-width="1.5" stroke-miterlimit="10"/>
<path id="Vector_3" d="M16.62 21.9999C18.0338 21.9999 19.18 20.8537 19.18 19.4399C19.18 18.026 18.0338 16.8799 16.62 16.8799C15.2061 16.8799 14.06 18.026 14.06 19.4399C14.06 20.8537 15.2061 21.9999 16.62 21.9999Z" stroke="#292D32" stroke-width="1.5" stroke-miterlimit="10"/>
</g>
</g>
</svg>
