<svg width="420" height="61" viewBox="0 0 420 61" fill="none" xmlns="http://www.w3.org/2000/svg">
<g clip-path="url(#clip0_1_986)">
<path d="M88.1825 51.8036L87.8938 51.6547C87.3665 51.3848 86.9316 50.963 86.645 50.4434C86.3583 49.9237 86.2331 49.33 86.2852 48.7385C86.4718 46.6017 86.4933 44.4536 86.3496 42.3135C86.3061 41.7268 86.4362 41.1403 86.7235 40.6274C87.0108 40.1145 87.4426 39.6981 87.9647 39.4304L88.3739 39.2218C88.955 38.9261 89.4236 38.4475 89.7078 37.8592C89.9921 37.271 90.0764 36.6055 89.9478 35.9646C89.7641 35.0511 89.5502 34.1375 89.306 33.2239C89.1262 32.5403 88.9266 31.8634 88.7187 31.1947C88.5182 30.5648 88.1153 30.0192 87.5729 29.6434C87.0305 29.2675 86.3793 29.0827 85.721 29.1176L85.3646 29.1358C84.7735 29.1697 84.1857 29.0255 83.6768 28.7217C83.1679 28.418 82.7612 27.9685 82.5088 27.4311C81.5956 25.4745 80.5304 23.593 79.3231 21.8039C78.9988 21.3175 78.8244 20.7461 78.8218 20.161C78.8191 19.5759 78.9883 19.0029 79.3082 18.5136L79.5408 18.1561C79.8984 17.6045 80.0649 16.9503 80.0148 16.2943C79.9647 15.6383 79.7008 15.0171 79.2637 14.5266C78.176 13.3027 77.0233 12.1386 75.8106 11.0393C75.3227 10.5956 74.7022 10.3261 74.0458 10.2728C73.3894 10.2195 72.7338 10.3854 72.1811 10.7447L71.8676 10.9483C71.3763 11.2718 70.8002 11.4412 70.2125 11.435C69.6249 11.4288 69.0524 11.2473 68.568 10.9135C66.8058 9.69191 64.9519 8.60902 63.023 7.67457C62.5001 7.41551 62.0648 7.00772 61.7714 6.50206C61.478 5.9964 61.3395 5.41527 61.3732 4.83116L61.393 4.4174C61.4284 3.76008 61.2466 3.10942 60.8758 2.5663C60.5051 2.02318 59.966 1.61795 59.3423 1.41345C57.779 0.894084 56.1891 0.459279 54.5793 0.110911C53.9354 -0.0295574 53.2633 0.0480829 52.668 0.331683C52.0728 0.615283 51.588 1.08884 51.2896 1.67826L51.1098 2.02582C50.8446 2.55058 50.4305 2.98481 49.9196 3.27375C49.4087 3.5627 48.824 3.69343 48.2392 3.64945C46.1412 3.48529 44.0337 3.48252 41.9353 3.64117C41.3515 3.68269 40.7686 3.55026 40.2596 3.26051C39.7506 2.97076 39.3383 2.53661 39.0745 2.01258L38.8848 1.63854C38.5885 1.05127 38.1071 0.578614 37.5155 0.293992C36.9239 0.00936968 36.2552 -0.0712811 35.6132 0.0645688C34.8587 0.223455 34.1031 0.402754 33.3464 0.602466L33.1814 0.647153C32.3708 0.867828 31.5723 1.1045 30.7859 1.35718C30.1611 1.56093 29.6207 1.96571 29.2485 2.50879C28.8763 3.05187 28.693 3.70293 28.7269 4.36113L28.7484 4.77655C28.7803 5.36362 28.6383 5.94702 28.3403 6.4533C28.0423 6.95957 27.6017 7.36607 27.0739 7.62161C25.2171 8.51207 23.4302 9.54225 21.7285 10.7033C21.2433 11.0318 20.6722 11.209 20.0869 11.2128C19.5016 11.2167 18.9282 11.0469 18.4388 10.7249L18.0923 10.5014C17.541 10.1403 16.886 9.97228 16.2295 10.0235C15.5731 10.0747 14.9519 10.3422 14.4628 10.7844C13.2066 11.9147 12.0136 13.1137 10.8893 14.3759C10.4525 14.8664 10.1883 15.4872 10.1373 16.1429C10.0863 16.7987 10.2514 17.453 10.6072 18.0055L10.8315 18.3514C11.1537 18.8441 11.323 19.4215 11.318 20.0107C11.313 20.5999 11.134 21.1744 10.8035 21.6616C9.66694 23.3261 8.65345 25.0719 7.77117 26.8849C7.51304 27.4093 7.1068 27.8458 6.60308 28.1401C6.09936 28.4344 5.52043 28.5735 4.93846 28.54L4.50621 28.5168C3.85195 28.4829 3.20469 28.6656 2.66398 29.0366C2.12327 29.4077 1.71904 29.9468 1.51347 30.5708C0.974072 32.1954 0.524097 33.8486 0.16558 35.5227C0.0257857 36.1701 0.103189 36.8456 0.385748 37.4443C0.668307 38.0429 1.14018 38.5311 1.72794 38.8329L2.07935 39.0116C2.60268 39.2781 3.03555 39.6942 3.32331 40.2074C3.61107 40.7205 3.74081 41.3077 3.69616 41.8948C3.54404 43.8814 3.53466 45.8765 3.66811 47.8646C3.70554 48.4476 3.57129 49.0287 3.28206 49.5357C2.99283 50.0428 2.56139 50.4533 2.04141 50.7163L1.6372 50.9232C1.05761 51.2183 0.58983 51.6951 0.30488 52.2811C0.0199297 52.8672 -0.0666294 53.5305 0.0583432 54.1704C0.246421 55.0972 0.463095 56.0219 0.708365 56.9443C0.909641 57.699 1.12961 58.4449 1.36829 59.1819C1.60334 59.9236 2.11939 60.5429 2.80526 60.9065H10.6253C9.73588 58.9575 9.0118 56.9366 8.46078 54.8655C3.08573 34.6571 15.0996 13.8198 35.2437 8.42763L35.3806 8.39287C55.4834 3.09665 76.167 15.1373 81.5322 35.2977C83.8148 43.8265 83.0448 52.8883 79.3561 60.9065H87.7965C88.0679 60.6075 88.2746 60.2553 88.4036 59.8721C88.9332 58.3133 89.3793 56.7271 89.7399 55.1204C89.884 54.4726 89.8092 53.795 89.5273 53.1945C89.2453 52.5941 88.7722 52.1047 88.1825 51.8036Z" fill="#EB5757"/>
<path d="M27.1058 60.9228C25.1284 60.9229 23.179 60.4545 21.4163 59.5555C19.6536 58.6565 18.1277 57.3524 16.9627 55.7495C15.7977 54.1467 15.0267 52.2904 14.7125 50.3319C14.3982 48.3734 14.5497 46.3681 15.1546 44.4795C15.7594 42.5909 16.8005 40.8724 18.1929 39.4639C19.5854 38.0555 21.2899 36.997 23.1674 36.3748C25.045 35.7525 27.0426 35.5841 28.9974 35.8832C30.9521 36.1824 32.8088 36.9406 34.4161 38.0961C34.6679 38.2774 34.8376 38.5516 34.8879 38.8584C34.9381 39.1652 34.8649 39.4795 34.6842 39.7321C34.5034 39.9847 34.2301 40.155 33.9243 40.2054C33.6184 40.2559 33.3051 40.1823 33.0533 40.0011C31.077 38.5843 28.6615 37.9217 26.2415 38.1327C23.8216 38.3437 21.5562 39.4144 19.8532 41.152C18.1501 42.8896 17.1213 45.18 16.9519 47.6108C16.7825 50.0417 17.4836 52.4534 18.9291 54.4119C20.3745 56.3703 22.4694 57.7467 24.8365 58.2935C27.2037 58.8402 29.6876 58.5213 31.8412 57.3942C33.9948 56.267 35.6766 54.4057 36.5839 52.1452C37.4912 49.8848 37.5643 47.3737 36.7901 45.0639C36.6936 44.7695 36.717 44.4488 36.8553 44.1717C36.9936 43.8946 37.2355 43.6836 37.5283 43.5848C37.8211 43.486 38.141 43.5075 38.4181 43.6444C38.6952 43.7814 38.9071 44.0227 39.0075 44.3158C39.6404 46.2101 39.8154 48.2281 39.5179 50.2036C39.2204 52.179 38.459 54.0551 37.2965 55.6773C36.1339 57.2994 34.6036 58.621 32.8318 59.533C31.0599 60.4451 29.0973 60.9214 27.1058 60.9228Z" fill="#EB5757"/>
<path d="M61.8096 60.9229C59.6893 60.9219 57.5985 60.4244 55.7036 59.4701C53.8087 58.5158 52.162 57.1309 50.8944 55.4258C49.6269 53.7206 48.7737 51.7422 48.4025 49.648C48.0313 47.5538 48.1525 45.4016 48.7564 43.3626C48.854 43.0766 49.0579 42.8394 49.3256 42.7006C49.5933 42.5617 49.9041 42.5318 50.1932 42.6172C50.4823 42.7025 50.7274 42.8965 50.8775 43.1588C51.0275 43.421 51.0708 43.7312 50.9984 44.0247C50.2201 46.6245 50.3992 49.4184 51.5031 51.8969C52.607 54.3753 54.5622 56.3731 57.012 57.526C59.4618 58.6788 62.243 58.9099 64.8485 58.1771C67.454 57.4443 69.7101 55.7964 71.2054 53.5339C72.7007 51.2714 73.3356 48.5452 72.9942 45.8523C72.6529 43.1593 71.3581 40.6792 69.3459 38.8642C67.3337 37.0492 64.7383 36.0202 62.0329 35.9649C59.3275 35.9096 56.6924 36.8317 54.6082 38.5629C54.3672 38.7347 54.0703 38.8085 53.7772 38.7696C53.4841 38.7306 53.2166 38.5818 53.0285 38.353C52.8404 38.1242 52.7456 37.8325 52.7632 37.5364C52.7808 37.2404 52.9095 36.962 53.1234 36.7573C54.8053 35.3564 56.7988 34.3824 58.9352 33.9178C61.0716 33.4531 63.2881 33.5114 65.3974 34.0877C67.5066 34.6639 69.4465 35.7413 71.0529 37.2286C72.6594 38.7159 73.8853 40.5694 74.6268 42.6325C75.3683 44.6955 75.6038 46.9073 75.3132 49.0808C75.0226 51.2544 74.2145 53.3258 72.9573 55.1199C71.7001 56.9139 70.0307 58.3779 68.0903 59.388C66.1499 60.3981 63.9956 60.9246 61.8096 60.9229Z" fill="#EB5757"/>
<path d="M29.3661 48.6042C29.1274 48.6043 28.8944 48.531 28.6983 48.3943C28.5023 48.2576 28.3527 48.064 28.2695 47.8395C28.1864 47.615 28.1737 47.3704 28.2332 47.1385C28.2926 46.9065 28.4214 46.6984 28.6022 46.542L40.009 36.6828L35.2773 35.1552C35.1261 35.1123 34.9851 35.0393 34.8626 34.9405C34.7402 34.8417 34.6388 34.7192 34.5646 34.5803C34.4904 34.4414 34.4448 34.2889 34.4306 34.1319C34.4164 33.9749 34.4339 33.8167 34.4821 33.6666C34.5302 33.5165 34.6079 33.3778 34.7107 33.2585C34.8135 33.1393 34.9391 33.042 35.0802 32.9726C35.2212 32.9031 35.3748 32.8629 35.5317 32.8543C35.6886 32.8457 35.8456 32.8689 35.9934 32.9225L44.6911 35.7361L30.1267 48.3279C29.9141 48.508 29.6444 48.6061 29.3661 48.6042Z" fill="#EB5757"/>
<path d="M59.7223 44.0892C59.6066 44.0891 59.4915 44.0718 59.3808 44.0379L43.9007 39.3044L52.9581 30.8188C53.1868 30.6189 53.4839 30.5159 53.7868 30.5316C54.0897 30.5472 54.3748 30.6803 54.5817 30.9028C54.7887 31.1252 54.9014 31.4196 54.8962 31.7239C54.8909 32.0281 54.768 32.3184 54.5535 32.5335L48.4492 38.2451L60.0539 41.7936C60.3211 41.8755 60.5502 42.0507 60.6998 42.2874C60.8494 42.5241 60.9096 42.8067 60.8696 43.0841C60.8295 43.3615 60.6918 43.6153 60.4814 43.7996C60.2709 43.984 60.0017 44.0867 59.7223 44.0892Z" fill="#EB5757"/>
<path d="M28.5989 34.033C28.3355 34.0329 28.0799 33.9436 27.8734 33.7795C27.6669 33.6155 27.5216 33.3863 27.4611 33.1292C27.4006 32.872 27.4284 32.6018 27.54 32.3625C27.6515 32.1231 27.8404 31.9286 28.0759 31.8103C32.1889 29.7563 42.2279 26.4181 49.6207 25.7527C49.7735 25.7394 49.9275 25.7563 50.0738 25.8026C50.2201 25.849 50.3559 25.9238 50.4734 26.0227C50.5909 26.1217 50.6879 26.2429 50.7587 26.3795C50.8295 26.516 50.8728 26.6652 50.8861 26.8186C50.8994 26.9719 50.8825 27.1264 50.8363 27.2732C50.7901 27.42 50.7156 27.5562 50.6169 27.674C50.5183 27.7919 50.3974 27.8892 50.2613 27.9602C50.1252 28.0312 49.9765 28.0747 49.8236 28.088C42.713 28.7285 33.0633 31.9377 29.112 33.9106C28.9527 33.9905 28.7771 34.0325 28.5989 34.033Z" fill="#EB5757"/>
<path d="M23.2505 31.4808C22.9863 31.4803 22.73 31.3901 22.5234 31.2248C22.3168 31.0596 22.1721 30.829 22.1128 30.5707C22.0535 30.3124 22.0831 30.0416 22.1968 29.8023C22.3106 29.5631 22.5017 29.3695 22.7391 29.2531C31.6727 24.8969 42.0582 23.1939 49.1969 22.5335C49.3498 22.5194 49.5039 22.5356 49.6505 22.5812C49.7971 22.6269 49.9333 22.701 50.0514 22.7994C50.1694 22.8979 50.267 23.0187 50.3385 23.1549C50.41 23.2912 50.454 23.4402 50.4681 23.5936C50.4822 23.7469 50.466 23.9015 50.4206 24.0486C50.3751 24.1957 50.3012 24.3323 50.203 24.4507C50.1049 24.5692 49.9845 24.667 49.8487 24.7388C49.7128 24.8105 49.5643 24.8547 49.4114 24.8688C42.4674 25.5126 32.3789 27.1611 23.757 31.3633C23.599 31.4399 23.426 31.4801 23.2505 31.4808Z" fill="#EB5757"/>
<path d="M61.2151 20.8768C60.7348 20.2983 60.1264 19.8403 59.4383 19.5396C58.0838 18.9719 56.7574 18.4638 52.6427 18.3264C51.2126 18.2881 49.7817 18.3689 48.3648 18.568C48.0766 18.6284 47.8218 18.7958 47.6513 19.0367C47.4809 19.2775 47.4074 19.574 47.4455 19.8669C47.4837 20.1598 47.6307 20.4274 47.8571 20.6162C48.0836 20.805 48.3727 20.9011 48.6667 20.8851C50.3968 20.6318 52.1507 20.5851 53.8916 20.7461C53.2937 21.4176 52.8937 22.2426 52.7362 23.129C52.5787 24.0154 52.6699 24.9282 52.9997 25.7656C53.3295 26.603 53.8849 27.3319 54.6038 27.8709C55.3227 28.4099 56.1769 28.7377 57.0708 28.8179C57.2176 28.8311 57.3645 28.8377 57.5097 28.8377C58.717 28.8352 59.8799 28.3802 60.7701 27.5621C61.6604 26.744 62.214 25.6217 62.3221 24.4154C62.3798 23.7814 62.3116 23.1423 62.1216 22.535C61.9316 21.9276 61.6235 21.3641 61.2151 20.8768ZM59.9926 24.2135C59.9494 24.6981 59.7667 25.1597 59.4667 25.542C59.1666 25.9244 58.7623 26.2109 58.3028 26.3668C57.8434 26.5227 57.3486 26.5413 56.8788 26.4201C56.4091 26.299 55.9846 26.0435 55.657 25.6846C55.3294 25.3258 55.1129 24.8791 55.0338 24.399C54.9547 23.919 55.0165 23.4262 55.2116 22.9807C55.4067 22.5352 55.7268 22.1563 56.1327 21.89C56.5387 21.6237 57.0131 21.4816 57.4981 21.4809C57.5724 21.4809 57.6483 21.481 57.7241 21.4909C58.3845 21.551 58.9942 21.8713 59.4194 22.3817C59.8447 22.8921 60.0508 23.5508 59.9926 24.2135Z" fill="#EB5757"/>
</g>
<path d="M110 0.449951H125.636C131.885 0.449951 136.8 4.93085 136.8 11.8741C136.8 17.6987 133.448 21.0609 129.43 22.4045L137.248 31.8162H126.079L119.382 22.8544V31.8162H110V0.449951ZM124.957 14.5614C125.624 14.4978 126.243 14.1871 126.693 13.6902C127.144 13.1933 127.393 12.5458 127.393 11.8741C127.393 11.2025 127.144 10.555 126.693 10.058C126.243 9.56112 125.624 9.25048 124.957 9.1868H119.382V14.5614H124.957Z" fill="#EB5757"/>
<path d="M140.599 16.13C140.599 6.72438 147.266 0 156.005 0C164.744 0 171.417 6.72438 171.417 16.13C171.417 25.5356 164.714 32.26 156.005 32.26C147.296 32.26 140.599 25.5417 140.599 16.13ZM162.035 16.13C162.035 11.8741 159.357 9.18675 155.975 9.18675C152.593 9.18675 149.914 11.8741 149.914 16.13C149.914 20.3859 152.593 23.0793 155.975 23.0793C159.357 23.0793 162.035 20.3859 162.035 16.13Z" fill="#EB5757"/>
<path d="M176.102 18.3735V0.449951H185.483V18.3735C185.483 21.2858 187.271 23.0794 189.726 23.0794C192.18 23.0794 193.968 21.2858 193.968 18.3735V0.449951H203.344V18.3735C203.344 26.8854 197.986 32.26 189.72 32.26C181.453 32.26 176.102 26.8854 176.102 18.3735Z" fill="#EB5757"/>
<path d="M209.156 0.449951H219.653L226.58 14.1176H227.471V0.449951H236.853V31.8162H226.356L219.435 18.1668H218.538V31.8345H209.156V0.449951Z" fill="#EB5757"/>
<path d="M242.883 0.449951H254.938C263.877 0.449951 270.574 7.16826 270.574 16.1301C270.574 25.0918 263.907 31.8162 254.938 31.8162H242.883V0.449951ZM255.162 22.6295C258.513 22.6295 261.222 19.9422 261.222 16.1301C261.222 12.3179 258.544 9.63671 255.162 9.63671H252.259V22.6295H255.162Z" fill="#EB5757"/>
<path d="M289.557 0.449951H305.193C311.442 0.449951 316.357 4.93085 316.357 11.8741C316.357 17.6987 313.005 21.0609 308.987 22.4045L316.805 31.8162H305.636L298.939 22.8544V31.8162H289.557V0.449951ZM304.521 14.5614C305.187 14.4978 305.806 14.1871 306.256 13.6902C306.707 13.1933 306.956 12.5458 306.956 11.8741C306.956 11.2025 306.707 10.555 306.256 10.058C305.806 9.56112 305.187 9.25048 304.521 9.1868H298.939V14.5614H304.521Z" fill="#EB5757"/>
<path d="M320.156 16.13C320.156 6.72438 326.853 0 335.562 0C344.271 0 350.974 6.72438 350.974 16.13C350.974 25.5356 344.271 32.26 335.562 32.26C326.853 32.26 320.156 25.5417 320.156 16.13ZM341.592 16.13C341.592 11.8741 338.914 9.18675 335.562 9.18675C332.211 9.18675 329.532 11.8741 329.532 16.13C329.532 20.3859 332.211 23.0793 335.562 23.0793C338.914 23.0793 341.592 20.3859 341.592 16.13Z" fill="#EB5757"/>
<path d="M354.769 16.13C354.769 6.72438 361.472 0 370.181 0C378.224 0 383.805 5.5996 384.92 13.2177H375.539C375.235 12.0352 374.539 10.9917 373.565 10.259C372.591 9.52631 371.398 9.14814 370.181 9.18676C366.83 9.18676 364.151 11.8741 364.151 16.13C364.151 20.386 366.83 23.0793 370.181 23.0793C373.084 23.0793 374.872 21.2858 375.539 18.8234H384.92C383.805 26.6665 378.224 32.2661 370.181 32.2661C361.472 32.26 354.769 25.5417 354.769 16.13Z" fill="#EB5757"/>
<path d="M389.835 0.449951H399.21V13.2178L405.913 0.449951H416.634L408.15 15.9051L417.531 31.8162H406.804L399.21 18.3735V31.8162H389.835V0.449951Z" fill="#EB5757"/>
<path d="M110 46.0022H115.873C116.392 45.9844 116.91 46.074 117.394 46.2654C117.878 46.4568 118.317 46.7459 118.685 47.1148C119.053 47.4836 119.341 47.9244 119.532 48.4097C119.722 48.8951 119.812 49.4145 119.794 49.9359C119.826 50.5803 119.68 51.2211 119.37 51.7868C119.061 52.3526 118.601 52.821 118.042 53.14V53.2434C118.665 53.5304 119.185 54.0005 119.535 54.5912C119.884 55.182 120.047 55.8654 120 56.5509C120.018 57.072 119.928 57.5912 119.738 58.0762C119.547 58.5612 119.258 59.0016 118.891 59.37C118.523 59.7384 118.083 60.027 117.6 60.2177C117.116 60.4084 116.598 60.4971 116.079 60.4785H110.018L110 46.0022ZM115.873 52.6232C116.236 52.6406 116.598 52.5838 116.939 52.4564C117.279 52.329 117.59 52.1336 117.853 51.8821C118.116 51.6306 118.325 51.3281 118.468 50.9931C118.611 50.658 118.685 50.2973 118.685 49.9329C118.685 49.5684 118.611 49.2077 118.468 48.8727C118.325 48.5376 118.116 48.2352 117.853 47.9837C117.59 47.7321 117.279 47.5368 116.939 47.4094C116.598 47.282 116.236 47.2252 115.873 47.2425H111.236V52.6232H115.873ZM116.079 59.2382C116.434 59.25 116.788 59.1886 117.119 59.0578C117.449 58.927 117.75 58.7296 118.001 58.4777C118.253 58.2259 118.45 57.925 118.581 57.5935C118.713 57.2621 118.775 56.9073 118.764 56.5509C118.792 56.1902 118.742 55.8276 118.617 55.4882C118.492 55.1489 118.295 54.8408 118.04 54.5852C117.784 54.3297 117.477 54.1328 117.138 54.0082C116.8 53.8836 116.438 53.8342 116.079 53.8635H111.23V59.2382H116.079Z" fill="#EB5757"/>
<path d="M135.008 46H136.22V60.4763H135.008V46Z" fill="#EB5757"/>
<path d="M151.22 53.4479C151.22 48.9974 154.208 46 158.02 46C159.452 46.0107 160.841 46.4923 161.974 47.3709C163.107 48.2494 163.921 49.4765 164.292 50.8639H162.953C162.619 49.8091 161.961 48.8877 161.072 48.2321C160.184 47.5766 159.111 47.2208 158.008 47.216C154.917 47.216 152.444 49.6966 152.444 53.4236C152.444 57.1506 154.917 59.6251 158.008 59.6251C159.121 59.6212 160.204 59.257 161.095 58.5867C161.986 57.9164 162.637 56.9756 162.953 55.9042H164.292C163.931 57.3077 163.121 58.5534 161.985 59.4497C160.85 60.3461 159.452 60.8435 158.008 60.8654C154.208 60.8897 151.22 57.8923 151.22 53.4479Z" fill="#EB5757"/>
<path d="M184.65 55.0408L179.292 46H180.674L185.08 53.4479H185.492L189.886 46H191.268L185.905 55.0408V60.4763H184.692L184.65 55.0408Z" fill="#EB5757"/>
<path d="M206.268 53.4479C206.268 48.9974 209.256 46 213.068 46C214.503 46.0068 215.896 46.4865 217.033 47.3653C218.17 48.2442 218.987 49.4735 219.359 50.8639H218.02C217.685 49.8087 217.025 48.887 216.136 48.2315C215.246 47.576 214.172 47.2205 213.068 47.216C209.977 47.216 207.504 49.6966 207.504 53.4236C207.504 57.1506 209.977 59.6251 213.068 59.6251C214.183 59.6225 215.267 59.2589 216.159 58.5885C217.051 57.9181 217.704 56.9766 218.02 55.9042H219.359C218.997 57.3082 218.185 58.554 217.048 59.4503C215.912 60.3466 214.513 60.8438 213.068 60.8654C209.256 60.8897 206.268 57.8923 206.268 53.4479Z" fill="#EB5757"/>
<path d="M234.359 46H235.571V59.2359H242.995V60.4519H234.359V46Z" fill="#EB5757"/>
<path d="M258.013 46H267.104V47.216H259.25V52.5967H266.674V53.8127H259.25V59.1873H267.086V60.4033H257.995L258.013 46Z" fill="#EB5757"/>
<path d="M290 46H295.976C298.448 46 300.218 47.7571 300.218 50.3471C300.218 53.0344 298.364 54.7915 295.976 54.7915H294.533L300.509 60.4763H298.861L292.885 54.7915H291.236V60.4763H290.024L290 46ZM295.976 53.5513C297.727 53.5513 298.964 52.3353 298.964 50.3471C298.992 49.9411 298.935 49.5337 298.796 49.1513C298.657 48.7689 298.44 48.4199 298.159 48.127C297.877 47.8341 297.537 47.6039 297.161 47.4511C296.785 47.2984 296.381 47.2265 295.976 47.2403H291.236V53.5513H295.976Z" fill="#EB5757"/>
<path d="M315.527 46H324.618V47.216H316.764V52.5967H324.188V53.8127H316.764V59.1873H324.6V60.4033H315.509L315.527 46Z" fill="#EB5757"/>
<path d="M339.618 46H345.594C346.168 45.9994 346.736 46.1156 347.263 46.3415C347.791 46.5675 348.268 46.8985 348.664 47.3145C349.061 47.7306 349.369 48.223 349.571 48.762C349.772 49.301 349.863 49.8755 349.836 50.4505C349.871 51.0223 349.785 51.595 349.585 52.1316C349.385 52.6682 349.075 53.1568 348.676 53.5658C348.276 53.9749 347.795 54.2953 347.264 54.5065C346.734 54.7176 346.164 54.8147 345.594 54.7916H340.855V60.4763H339.642L339.618 46ZM345.594 53.5513C345.999 53.5658 346.403 53.4948 346.78 53.3428C347.156 53.1908 347.496 52.9612 347.778 52.6689C348.061 52.3766 348.278 52.0281 348.418 51.646C348.557 51.2638 348.615 50.8565 348.588 50.4505C348.588 48.4806 347.345 47.2403 345.594 47.2403H340.855V53.5513H345.594Z" fill="#EB5757"/>
<path d="M370.28 46H372.135L377.589 60.4763H376.377L374.892 56.5486H367.541L366.056 60.4763H364.844L370.28 46ZM374.407 55.3083L371.413 47.3437H371.001L368.013 55.3083H374.407Z" fill="#EB5757"/>
<path d="M392.589 46H393.801V60.4763H392.589V46Z" fill="#EB5757"/>
<path d="M408.801 46H414.777C417.25 46 419.019 47.7571 419.019 50.3471C419.019 53.0344 417.165 54.7915 414.777 54.7915H413.335L419.31 60.4763H417.686L411.71 54.7915H410.062V60.4763H408.85L408.801 46ZM414.777 53.5513C416.529 53.5513 417.765 52.3353 417.765 50.3471C417.793 49.9411 417.736 49.5337 417.597 49.1513C417.459 48.7689 417.241 48.4199 416.96 48.127C416.678 47.8341 416.338 47.6039 415.962 47.4511C415.586 47.2984 415.182 47.2265 414.777 47.2403H410.038V53.5513H414.777Z" fill="#EB5757"/>
<defs>
<clipPath id="clip0_1_986">
<rect width="90" height="61" fill="white"/>
</clipPath>
</defs>
</svg>
