<svg width="96" height="133" viewBox="0 0 96 133" fill="none" xmlns="http://www.w3.org/2000/svg">
<path d="M6.43767 127.098C5.71901 127.098 5.07501 126.981 4.50567 126.748C3.93634 126.515 3.47901 126.169 3.13367 125.712C2.79767 125.255 2.62034 124.704 2.60167 124.06H5.14967C5.18701 124.424 5.31301 124.704 5.52767 124.9C5.74234 125.087 6.02234 125.18 6.36767 125.18C6.72234 125.18 7.00234 125.101 7.20767 124.942C7.41301 124.774 7.51567 124.545 7.51567 124.256C7.51567 124.013 7.43167 123.813 7.26367 123.654C7.10501 123.495 6.90434 123.365 6.66167 123.262C6.42834 123.159 6.09234 123.043 5.65367 122.912C5.01901 122.716 4.50101 122.52 4.09967 122.324C3.69834 122.128 3.35301 121.839 3.06367 121.456C2.77434 121.073 2.62967 120.574 2.62967 119.958C2.62967 119.043 2.96101 118.329 3.62367 117.816C4.28634 117.293 5.14967 117.032 6.21367 117.032C7.29634 117.032 8.16901 117.293 8.83167 117.816C9.49434 118.329 9.84901 119.048 9.89567 119.972H7.30567C7.28701 119.655 7.17034 119.407 6.95567 119.23C6.74101 119.043 6.46567 118.95 6.12967 118.95C5.84034 118.95 5.60701 119.029 5.42967 119.188C5.25234 119.337 5.16367 119.557 5.16367 119.846C5.16367 120.163 5.31301 120.411 5.61167 120.588C5.91034 120.765 6.37701 120.957 7.01167 121.162C7.64634 121.377 8.15967 121.582 8.55167 121.778C8.95301 121.974 9.29834 122.259 9.58767 122.632C9.87701 123.005 10.0217 123.486 10.0217 124.074C10.0217 124.634 9.87701 125.143 9.58767 125.6C9.30767 126.057 8.89701 126.421 8.35567 126.692C7.81434 126.963 7.17501 127.098 6.43767 127.098ZM18.859 122.968C18.859 123.192 18.845 123.425 18.817 123.668H13.399C13.4363 124.153 13.5903 124.527 13.861 124.788C14.141 125.04 14.4816 125.166 14.883 125.166C15.4803 125.166 15.8956 124.914 16.129 124.41H18.677C18.5463 124.923 18.3083 125.385 17.963 125.796C17.627 126.207 17.2023 126.529 16.689 126.762C16.1756 126.995 15.6016 127.112 14.967 127.112C14.2016 127.112 13.5203 126.949 12.923 126.622C12.3256 126.295 11.859 125.829 11.523 125.222C11.187 124.615 11.019 123.906 11.019 123.094C11.019 122.282 11.1823 121.573 11.509 120.966C11.845 120.359 12.3116 119.893 12.909 119.566C13.5063 119.239 14.1923 119.076 14.967 119.076C15.723 119.076 16.395 119.235 16.983 119.552C17.571 119.869 18.0283 120.322 18.355 120.91C18.691 121.498 18.859 122.184 18.859 122.968ZM16.409 122.338C16.409 121.927 16.269 121.601 15.989 121.358C15.709 121.115 15.359 120.994 14.939 120.994C14.5376 120.994 14.197 121.111 13.917 121.344C13.6463 121.577 13.4783 121.909 13.413 122.338H16.409ZM22.5159 120.49C22.7959 120.061 23.1459 119.725 23.5659 119.482C23.9859 119.23 24.4526 119.104 24.9659 119.104V121.638H24.3079C23.7106 121.638 23.2626 121.769 22.9639 122.03C22.6652 122.282 22.5159 122.73 22.5159 123.374V127H20.1219V119.188H22.5159V120.49ZM29.6242 124.76L31.3182 119.188H33.8662L31.0942 127H28.1402L25.3682 119.188H27.9302L29.6242 124.76ZM36.0779 118.376C35.6579 118.376 35.3125 118.255 35.0419 118.012C34.7805 117.76 34.6499 117.452 34.6499 117.088C34.6499 116.715 34.7805 116.407 35.0419 116.164C35.3125 115.912 35.6579 115.786 36.0779 115.786C36.4885 115.786 36.8245 115.912 37.0859 116.164C37.3565 116.407 37.4919 116.715 37.4919 117.088C37.4919 117.452 37.3565 117.76 37.0859 118.012C36.8245 118.255 36.4885 118.376 36.0779 118.376ZM37.2679 119.188V127H34.8739V119.188H37.2679ZM38.5268 123.094C38.5268 122.282 38.6901 121.573 39.0168 120.966C39.3528 120.359 39.8148 119.893 40.4028 119.566C41.0001 119.239 41.6814 119.076 42.4468 119.076C43.4268 119.076 44.2434 119.333 44.8968 119.846C45.5594 120.359 45.9934 121.083 46.1988 122.016H43.6508C43.4361 121.419 43.0208 121.12 42.4048 121.12C41.9661 121.12 41.6161 121.293 41.3548 121.638C41.0934 121.974 40.9628 122.459 40.9628 123.094C40.9628 123.729 41.0934 124.219 41.3548 124.564C41.6161 124.9 41.9661 125.068 42.4048 125.068C43.0208 125.068 43.4361 124.769 43.6508 124.172H46.1988C45.9934 125.087 45.5594 125.805 44.8968 126.328C44.2341 126.851 43.4174 127.112 42.4468 127.112C41.6814 127.112 41.0001 126.949 40.4028 126.622C39.8148 126.295 39.3528 125.829 39.0168 125.222C38.6901 124.615 38.5268 123.906 38.5268 123.094ZM54.8433 122.968C54.8433 123.192 54.8293 123.425 54.8013 123.668H49.3833C49.4207 124.153 49.5747 124.527 49.8453 124.788C50.1253 125.04 50.466 125.166 50.8673 125.166C51.4647 125.166 51.88 124.914 52.1133 124.41H54.6613C54.5307 124.923 54.2927 125.385 53.9473 125.796C53.6113 126.207 53.1867 126.529 52.6733 126.762C52.16 126.995 51.586 127.112 50.9513 127.112C50.186 127.112 49.5047 126.949 48.9073 126.622C48.31 126.295 47.8433 125.829 47.5073 125.222C47.1713 124.615 47.0033 123.906 47.0033 123.094C47.0033 122.282 47.1667 121.573 47.4933 120.966C47.8293 120.359 48.296 119.893 48.8933 119.566C49.4907 119.239 50.1767 119.076 50.9513 119.076C51.7073 119.076 52.3793 119.235 52.9673 119.552C53.5553 119.869 54.0127 120.322 54.3393 120.91C54.6753 121.498 54.8433 122.184 54.8433 122.968ZM52.3933 122.338C52.3933 121.927 52.2533 121.601 51.9733 121.358C51.6933 121.115 51.3433 120.994 50.9233 120.994C50.522 120.994 50.1813 121.111 49.9013 121.344C49.6307 121.577 49.4627 121.909 49.3973 122.338H52.3933ZM59.2843 127.112C58.6029 127.112 57.9963 126.995 57.4643 126.762C56.9323 126.529 56.5123 126.211 56.2043 125.81C55.8963 125.399 55.7236 124.942 55.6863 124.438H58.0523C58.0803 124.709 58.2063 124.928 58.4303 125.096C58.6543 125.264 58.9296 125.348 59.2563 125.348C59.5549 125.348 59.7836 125.292 59.9423 125.18C60.1103 125.059 60.1943 124.905 60.1943 124.718C60.1943 124.494 60.0776 124.331 59.8443 124.228C59.6109 124.116 59.2329 123.995 58.7103 123.864C58.1503 123.733 57.6836 123.598 57.3103 123.458C56.9369 123.309 56.6149 123.08 56.3443 122.772C56.0736 122.455 55.9383 122.03 55.9383 121.498C55.9383 121.05 56.0596 120.644 56.3023 120.28C56.5543 119.907 56.9183 119.613 57.3943 119.398C57.8796 119.183 58.4536 119.076 59.1163 119.076C60.0963 119.076 60.8663 119.319 61.4263 119.804C61.9956 120.289 62.3223 120.933 62.4063 121.736H60.1943C60.1569 121.465 60.0356 121.251 59.8303 121.092C59.6343 120.933 59.3729 120.854 59.0463 120.854C58.7663 120.854 58.5516 120.91 58.4023 121.022C58.2529 121.125 58.1783 121.269 58.1783 121.456C58.1783 121.68 58.2949 121.848 58.5283 121.96C58.7709 122.072 59.1443 122.184 59.6483 122.296C60.2269 122.445 60.6983 122.595 61.0623 122.744C61.4263 122.884 61.7436 123.117 62.0143 123.444C62.2943 123.761 62.4389 124.191 62.4483 124.732C62.4483 125.189 62.3176 125.6 62.0563 125.964C61.8043 126.319 61.4356 126.599 60.9503 126.804C60.4743 127.009 59.9189 127.112 59.2843 127.112ZM70.4357 127.112C69.6704 127.112 68.9797 126.949 68.3637 126.622C67.7571 126.295 67.2764 125.829 66.9217 125.222C66.5764 124.615 66.4037 123.906 66.4037 123.094C66.4037 122.291 66.5811 121.587 66.9357 120.98C67.2904 120.364 67.7757 119.893 68.3917 119.566C69.0077 119.239 69.6984 119.076 70.4637 119.076C71.2291 119.076 71.9197 119.239 72.5357 119.566C73.1517 119.893 73.6371 120.364 73.9917 120.98C74.3464 121.587 74.5237 122.291 74.5237 123.094C74.5237 123.897 74.3417 124.606 73.9777 125.222C73.6231 125.829 73.1331 126.295 72.5077 126.622C71.8917 126.949 71.2011 127.112 70.4357 127.112ZM70.4357 125.04C70.8931 125.04 71.2804 124.872 71.5977 124.536C71.9244 124.2 72.0877 123.719 72.0877 123.094C72.0877 122.469 71.9291 121.988 71.6117 121.652C71.3037 121.316 70.9211 121.148 70.4637 121.148C69.9971 121.148 69.6097 121.316 69.3017 121.652C68.9937 121.979 68.8397 122.459 68.8397 123.094C68.8397 123.719 68.9891 124.2 69.2877 124.536C69.5957 124.872 69.9784 125.04 70.4357 125.04ZM80.5538 119.104C81.4684 119.104 82.1964 119.403 82.7378 120C83.2884 120.588 83.5638 121.4 83.5638 122.436V127H81.1838V122.758C81.1838 122.235 81.0484 121.829 80.7778 121.54C80.5071 121.251 80.1431 121.106 79.6858 121.106C79.2284 121.106 78.8644 121.251 78.5938 121.54C78.3231 121.829 78.1878 122.235 78.1878 122.758V127H75.7938V119.188H78.1878V120.224C78.4304 119.879 78.7571 119.608 79.1678 119.412C79.5784 119.207 80.0404 119.104 80.5538 119.104ZM92.5914 122.968C92.5914 123.192 92.5774 123.425 92.5494 123.668H87.1314C87.1687 124.153 87.3227 124.527 87.5934 124.788C87.8734 125.04 88.214 125.166 88.6154 125.166C89.2127 125.166 89.628 124.914 89.8614 124.41H92.4094C92.2787 124.923 92.0407 125.385 91.6954 125.796C91.3594 126.207 90.9347 126.529 90.4214 126.762C89.908 126.995 89.334 127.112 88.6994 127.112C87.934 127.112 87.2527 126.949 86.6554 126.622C86.058 126.295 85.5914 125.829 85.2554 125.222C84.9194 124.615 84.7514 123.906 84.7514 123.094C84.7514 122.282 84.9147 121.573 85.2414 120.966C85.5774 120.359 86.044 119.893 86.6414 119.566C87.2387 119.239 87.9247 119.076 88.6994 119.076C89.4554 119.076 90.1274 119.235 90.7154 119.552C91.3034 119.869 91.7607 120.322 92.0874 120.91C92.4234 121.498 92.5914 122.184 92.5914 122.968ZM90.1414 122.338C90.1414 121.927 90.0014 121.601 89.7214 121.358C89.4414 121.115 89.0914 120.994 88.6714 120.994C88.27 120.994 87.9294 121.111 87.6494 121.344C87.3787 121.577 87.2107 121.909 87.1454 122.338H90.1414Z" fill="white"/>
<rect x="29.5466" y="94.0242" width="70.1249" height="70.1249" rx="19" transform="rotate(-113.152 29.5466 94.0242)" stroke="white" stroke-width="2"/>
<g clip-path="url(#clip0_1_50619)">
<path d="M67.1821 34.6583C66.9639 34.0964 66.4908 33.6888 65.9166 33.568C65.3297 33.4441 64.7166 33.6333 64.2767 34.0734L60.174 38.176L58.1706 36.1727L62.5341 31.8092C62.9884 31.3549 63.1834 30.7223 63.056 30.1169C62.9314 29.525 62.5109 29.0373 61.9314 28.8123C58.1233 27.333 53.7965 28.2436 50.9083 31.1318C49.3876 32.6525 48.3947 34.5726 48.0361 36.6857C47.9594 37.0452 47.8852 37.4269 47.8066 37.8306C47.3479 40.1887 46.7769 43.1235 45.1029 44.7974L30.1144 59.786C28.2636 61.6367 28.2636 64.6483 30.1144 66.4991C31.0398 67.4245 32.2554 67.8872 33.471 67.8872C34.6865 67.8872 35.9022 67.4245 36.8275 66.4991L51.816 51.5106C53.49 49.8366 56.4248 49.2658 58.7829 48.8069C59.1867 48.7284 59.5683 48.6541 59.9278 48.5775C62.0409 48.2188 63.9611 47.2259 65.4818 45.7052C65.9304 45.2565 66.0603 44.6474 65.8745 44.1059C67.9108 41.4085 68.4177 37.8396 67.1821 34.6583ZM65.3752 35.1718C65.4436 35.1034 65.5243 35.0728 65.5966 35.0882C65.6587 35.1013 65.7049 35.1459 65.734 35.2207C66.7271 37.7777 66.3838 40.6322 64.8586 42.8606L61.2725 39.2745L65.3752 35.1718ZM64.3832 44.6068C63.0883 45.9017 61.4526 46.7459 59.6531 47.0484C59.6418 47.0502 59.6306 47.0524 59.6193 47.0548C59.2692 47.1297 58.8888 47.2036 58.4862 47.282C55.9204 47.7812 52.727 48.4024 50.7173 50.4121L35.729 65.4006C34.4841 66.6456 32.4582 66.6456 31.213 65.4005C29.968 64.1554 29.968 62.1296 31.213 60.8845L46.2015 45.896C48.2112 43.8863 48.8324 40.6931 49.3316 38.1272C49.41 37.7245 49.4839 37.3442 49.5588 36.994C49.5612 36.9828 49.5634 36.9716 49.5653 36.9602C49.8676 35.1608 50.7119 33.5252 52.0069 32.2302C53.6793 30.5577 55.9193 29.6663 58.2009 29.6663C59.2657 29.6663 60.3399 29.8606 61.369 30.2603C61.4626 30.2966 61.5187 30.356 61.5357 30.4367C61.5549 30.5278 61.5184 30.6276 61.4356 30.7104L56.5229 35.6231C56.2195 35.9264 56.2195 36.4183 56.5229 36.7217L64.3874 44.5863C64.3902 44.589 64.3926 44.5916 64.3947 44.594C64.3917 44.5979 64.3879 44.6021 64.3832 44.6068Z" fill="white"/>
<path d="M55.4241 37.8205C55.2784 37.6749 55.0808 37.593 54.8748 37.593C54.6688 37.593 54.4712 37.6749 54.3256 37.8205L52.1286 40.0176C51.8253 40.3209 51.8253 40.8128 52.1286 41.1162L55.2305 44.2181C55.3761 44.3637 55.5737 44.4456 55.7797 44.4456C55.9857 44.4456 56.1833 44.3637 56.329 44.2181L58.526 42.021C58.8293 41.7177 58.8293 41.2259 58.526 40.9224L55.4241 37.8205ZM55.7796 42.5702L53.7763 40.5668L54.8748 39.4683L56.8782 41.4716L55.7796 42.5702Z" fill="white"/>
<path d="M34.0201 62.5931C33.7167 62.2897 33.2251 62.2901 32.9218 62.5933C32.6184 62.8967 32.6186 63.3887 32.9219 63.6921C33.0736 63.8437 33.2724 63.9196 33.4712 63.9196C33.67 63.9196 33.8687 63.8437 34.0204 63.6921C34.3238 63.3888 34.3238 62.8969 34.0204 62.5935L34.0201 62.5931Z" fill="white"/>
<path d="M47.9103 47.6051L35.3935 60.1218C35.0902 60.4251 35.0902 60.917 35.3935 61.2204C35.5452 61.372 35.744 61.4479 35.9428 61.4479C36.1416 61.4479 36.3403 61.372 36.492 61.2204L49.0088 48.7036C49.3122 48.4003 49.3122 47.9084 49.0088 47.605C48.7054 47.3017 48.2137 47.3017 47.9103 47.6051Z" fill="white"/>
</g>
<defs>
<clipPath id="clip0_1_50619">
<rect width="39.7744" height="39.7744" fill="white" transform="translate(28.4004 28.1128)"/>
</clipPath>
</defs>
</svg>
