<svg width="92" height="29" viewBox="0 0 92 29" fill="none" xmlns="http://www.w3.org/2000/svg">
<path d="M3.92969 15.8792L15.8797 3.9292" stroke="#5DB7A0" stroke-width="1.5" stroke-miterlimit="10" stroke-linecap="round" stroke-linejoin="round"/>
<path d="M11.1013 18.2791L12.3013 17.0791" stroke="#5DB7A0" stroke-width="1.5" stroke-miterlimit="10" stroke-linecap="round" stroke-linejoin="round"/>
<path d="M13.793 15.5887L16.183 13.1987" stroke="#5DB7A0" stroke-width="1.5" stroke-miterlimit="10" stroke-linecap="round" stroke-linejoin="round"/>
<path d="M3.60127 10.239L10.2413 3.599C12.3613 1.479 13.4213 1.469 15.5213 3.569L20.4313 8.479C22.5313 10.579 22.5213 11.639 20.4013 13.759L13.7613 20.399C11.6413 22.519 10.5813 22.529 8.48127 20.429L3.57127 15.519C1.47127 13.419 1.47127 12.369 3.60127 10.239Z" stroke="#5DB7A0" stroke-width="1.5" stroke-linecap="round" stroke-linejoin="round"/>
<path d="M2 21.9985H22" stroke="#5DB7A0" stroke-width="1.5" stroke-linecap="round" stroke-linejoin="round"/>
<path d="M32.1391 22.5056H29V4H32.1391L38.1136 18.7336L44.088 4H47.2778V22.5056H44.1386V16.8096C44.1386 13.0882 44.1386 11.9997 44.3158 10.6833L39.6072 22.5056H36.62L31.9366 10.7086C32.1138 11.8225 32.1391 13.5692 32.1391 15.8729V22.5056Z" fill="#5DB7A0"/>
<path d="M50.9178 28.3028V9.99976H53.7785L53.981 11.8984C54.7405 10.4554 56.386 9.62003 58.2846 9.62003C61.8035 9.62003 64.1325 12.1769 64.1325 16.1008C64.1325 19.9994 62.006 22.8347 58.2846 22.8347C56.4113 22.8347 54.7911 22.1005 54.0063 20.8348V28.3028H50.9178ZM54.0316 16.2527C54.0316 18.5058 55.424 20.05 57.5505 20.05C59.7276 20.05 61.0187 18.4804 61.0187 16.2527C61.0187 14.0249 59.7276 12.43 57.5505 12.43C55.424 12.43 54.0316 13.9996 54.0316 16.2527Z" fill="#5DB7A0"/>
<path d="M70.313 22.8347C67.6549 22.8347 66.0347 21.2905 66.0347 18.9361C66.0347 16.6324 67.7055 15.1894 70.6674 14.9616L74.4141 14.6831V14.4046C74.4141 12.7085 73.4015 12.025 71.832 12.025C70.0092 12.025 68.9966 12.7845 68.9966 14.1009H66.3638C66.3638 11.3921 68.5916 9.62003 71.9839 9.62003C75.3508 9.62003 77.4267 11.4427 77.4267 14.911V22.5056H74.7179L74.4901 20.6576C73.9585 21.9487 72.2623 22.8347 70.313 22.8347ZM71.3257 20.5057C73.2243 20.5057 74.4395 19.3665 74.4395 17.4425V16.7843L71.832 16.9868C69.908 17.164 69.1738 17.7969 69.1738 18.8095C69.1738 19.9487 69.9333 20.5057 71.3257 20.5057Z" fill="#5DB7A0"/>
<path d="M79.0261 28.3028V25.7207H80.8741C82.0893 25.7207 82.8487 25.4422 83.3804 23.9739L83.7348 23.0372L78.697 9.99976H81.9627L85.1777 19.1133L88.57 9.99976H91.7598L85.6334 25.2903C84.6968 27.6193 83.3804 28.5813 81.3298 28.5813C80.4691 28.5813 79.7096 28.48 79.0261 28.3028Z" fill="#5DB7A0"/>
</svg>
