<svg width="116" height="36" viewBox="0 0 116 36" fill="none" xmlns="http://www.w3.org/2000/svg">
<path d="M4.94971 20.0009L20.0015 4.9491" stroke="#189877" stroke-width="1.88935" stroke-miterlimit="10" stroke-linecap="round" stroke-linejoin="round"/>
<path d="M13.9828 23.0236L15.4943 21.5121" stroke="#189877" stroke-width="1.88935" stroke-miterlimit="10" stroke-linecap="round" stroke-linejoin="round"/>
<path d="M17.3732 19.635L20.3835 16.6247" stroke="#189877" stroke-width="1.88935" stroke-miterlimit="10" stroke-linecap="round" stroke-linejoin="round"/>
<path d="M4.53607 12.8967L12.8996 4.53317C15.5699 1.86289 16.905 1.85029 19.5501 4.49538L25.7345 10.6798C28.3796 13.3249 28.367 14.6601 25.6968 17.3303L17.3332 25.6939C14.663 28.3641 13.3278 28.3767 10.6827 25.7316L4.49828 19.5472C1.8532 16.9021 1.8532 15.5795 4.53607 12.8967Z" stroke="#189877" stroke-width="1.88935" stroke-linecap="round" stroke-linejoin="round"/>
<path d="M2.51917 27.7086H27.7105" stroke="#189877" stroke-width="1.88935" stroke-linecap="round" stroke-linejoin="round"/>
<path d="M40.4813 28.3473H36.5273V5.03827H40.4813L48.0065 23.5962L55.5317 5.03827H59.5494V28.3473H55.5954V21.1728C55.5954 16.4855 55.5954 15.1144 55.8186 13.4563L49.8878 28.3473H46.1252L40.2262 13.4882C40.4494 14.8912 40.4813 17.0913 40.4813 19.993V28.3473Z" fill="black"/>
<path d="M64.1343 35.6493V12.5954H67.7374L67.9925 14.9868C68.9491 13.1693 71.0218 12.1171 73.4132 12.1171C77.8455 12.1171 80.779 15.3376 80.779 20.28C80.779 25.1905 78.1005 28.7618 73.4132 28.7618C71.0536 28.7618 69.0129 27.8371 68.0244 26.2428V35.6493H64.1343ZM68.0563 20.4713C68.0563 23.3092 69.8101 25.2543 72.4885 25.2543C75.2308 25.2543 76.857 23.2773 76.857 20.4713C76.857 17.6653 75.2308 15.6565 72.4885 15.6565C69.8101 15.6565 68.0563 17.6334 68.0563 20.4713Z" fill="black"/>
<path d="M88.5638 28.7618C85.2157 28.7618 83.175 26.8167 83.175 23.8513C83.175 20.9496 85.2795 19.1321 89.0102 18.8451L93.7294 18.4943V18.1436C93.7294 16.0072 92.4539 15.1463 90.477 15.1463C88.1811 15.1463 86.9057 16.1029 86.9057 17.761H83.5895C83.5895 14.3491 86.3955 12.1171 90.6683 12.1171C94.9092 12.1171 97.5239 14.4129 97.5239 18.7813V28.3473H94.112L93.8251 26.0196C93.1554 27.6458 91.019 28.7618 88.5638 28.7618ZM89.8392 25.8282C92.2307 25.8282 93.7613 24.3933 93.7613 21.97V21.1409L90.477 21.396C88.0536 21.6192 87.1289 22.4164 87.1289 23.6918C87.1289 25.1267 88.0855 25.8282 89.8392 25.8282Z" fill="black"/>
<path d="M99.5385 35.6493V32.3968H101.866C103.397 32.3968 104.353 32.0461 105.023 30.1967L105.469 29.0169L99.1239 12.5954H103.237L107.287 24.0745L111.56 12.5954H115.577L107.861 31.8548C106.681 34.7883 105.023 36 102.44 36C101.356 36 100.399 35.8725 99.5385 35.6493Z" fill="black"/>
</svg>
